<svg width="23" height="26" viewBox="0 0 23 26" fill="none" xmlns="http://www.w3.org/2000/svg">
<path d="M20.2181 15.9878L22.7396 15.9878L22.7396 13.8941L15.4507 13.8941C15.3181 16.0665 13.4939 17.7902 11.264 17.7902C9.03409 17.7902 7.20987 16.0665 7.0773 13.8941L0.260325 13.8941L0.260325 15.9878L2.34174 15.9878C2.4531 16.4181 2.59893 16.8405 2.77393 17.255C2.97279 17.722 3.20878 18.168 3.48188 18.5904L1.66031 20.3929L4.52922 23.2317L6.35344 21.4266C6.77503 21.6916 7.22048 21.9225 7.68449 22.1166C8.20683 22.3344 8.74508 22.5049 9.29394 22.623L9.29394 25.1338L13.356 25.1338L13.356 22.602C13.8731 22.4839 14.3795 22.3213 14.8727 22.1166C15.3711 21.9093 15.8458 21.6601 16.2939 21.3715L18.0863 23.1451L20.9578 20.3037L19.1363 18.5012C19.3855 18.1051 19.6003 17.6879 19.7859 17.255C19.9609 16.8405 20.1067 16.4181 20.2181 15.9878Z" fill="white"/>
<path d="M19.1346 4.78514V9.01277C19.1346 9.29966 18.8976 9.53243 18.6054 9.53243H18.2306C17.9384 9.53243 17.7014 9.29966 17.7014 9.01277V3.68629C16.6154 2.97717 15.3972 2.44669 14.0908 2.14355V9.4783C14.0908 9.76519 13.8538 9.99795 13.5616 9.99795H9.42737C9.13522 9.99795 8.89819 9.76519 8.89819 9.4783V2.14355C7.60831 2.44669 6.39008 2.98258 5.30415 3.68629V9.01277C5.30415 9.29966 5.06713 9.53243 4.77497 9.53243H4.40013C4.10798 9.53243 3.87095 9.29966 3.87095 9.01277V4.78514C1.65499 6.79881 0.260376 9.67317 0.260376 12.8723H22.7396C22.7452 9.67317 21.3561 6.79881 19.1346 4.78514Z" fill="white"/>
<path d="M13.0326 8.60296C13.0326 8.84489 12.8554 9.0405 12.6323 9.0405H10.3676C10.1503 9.0405 9.96729 8.84489 9.96729 8.60296V1.30375C9.96729 1.06182 10.1446 0.866211 10.3676 0.866211H12.6323C12.8496 0.866211 13.0326 1.06182 13.0326 1.30375V8.60296Z" fill="white"/>
</svg>
